# xmcd
#
# Track frame offsets: 
#        150
#        18766
#        39050
#        52009
#        67967
#        88168
#        107477
#        122046
#        143135
#        161246
#        180928
#
# Disc length: 2683 seconds
#
# Revision: 1
# Processed by: cddbd v1.5.2PL0 Copyright (c) Steve Scherf et al.
# Submitted via: ExactAudioCopy v0.99pb5
#
DISCID=850a790b
DTITLE=Gary Berry - The Gift
DYEAR=2010
DGENRE=Country
TTITLE0=Josey
TTITLE1=She Can
TTITLE2=Where You Are Tonight
TTITLE3=Tennessee
TTITLE4=Now and Then
TTITLE5=Crazy Love Song
TTITLE6=Georgia
TTITLE7=If You Don't Want My Heart
TTITLE8=River Roll
TTITLE9=Motorcycle Man
TTITLE10=Somebody Else
EXTD=
EXTT0=
EXTT1=
EXTT2=
EXTT3=
EXTT4=
EXTT5=
EXTT6=
EXTT7=
EXTT8=
EXTT9=
EXTT10=
PLAYORDER=
